<svg version="1.1" id="Layer_1" xmlns="http://www.w3.org/2000/svg" xmlns:xlink="http://www.w3.org/1999/xlink" x="0px" y="0px"
	 width="100%" viewBox="0 0 500 500" enable-background="new 0 0 500 500" xml:space="preserve">
<path fill="#000000" opacity="1.000000" stroke="none" 
	d="
M225.000000,501.000000 
	C150.000015,501.000000 75.500038,501.000000 1.000040,501.000000 
	C1.000027,334.333405 1.000027,167.666779 1.000013,1.000129 
	C167.666565,1.000086 334.333130,1.000086 500.999756,1.000043 
	C500.999847,167.666534 500.999847,334.333069 500.999939,500.999817 
	C409.166656,501.000000 317.333344,501.000000 225.000000,501.000000 
M225.043671,226.465851 
	C218.799026,215.859772 202.129120,208.702942 191.781418,211.510895 
	C191.781418,241.025314 191.781418,270.366425 191.781418,299.999725 
	C216.280685,299.999725 240.069061,299.865295 263.854584,300.069061 
	C272.768097,300.145416 281.312134,298.675903 289.728363,295.989075 
	C309.082367,289.810425 323.854645,278.047607 334.023865,260.348846 
	C339.456543,250.893631 343.188141,240.759048 344.680481,230.175171 
	C346.233765,219.159317 344.994293,208.241852 338.829254,198.163086 
	C331.720886,186.542130 320.668365,180.435989 308.966522,175.111771 
	C304.664551,173.154419 299.888855,172.238358 295.329224,170.847321 
	C295.319305,172.558716 295.808258,173.163635 296.278259,173.783005 
	C296.864014,174.554932 297.472198,175.313583 298.005310,176.121140 
	C308.603973,192.175781 310.428619,209.654953 305.518066,227.822922 
	C301.962463,240.977783 294.603271,251.223251 281.549225,257.211365 
	C265.447357,264.597565 248.712845,260.915405 231.999771,262.131500 
	C231.999771,257.598907 232.330765,253.751251 231.931213,249.981033 
	C231.085663,242.002563 230.877457,233.777847 225.043671,226.465851 
M344.998383,189.123825 
	C344.664734,187.725494 344.358368,186.320023 343.993408,184.929916 
	C339.082458,166.226837 330.828247,149.666031 315.066101,137.460709 
	C300.624481,126.277908 284.243927,120.392860 266.268524,120.143990 
	C230.969925,119.655281 195.659790,119.998344 160.354431,120.008789 
	C158.951813,120.009209 157.549225,120.128044 155.967453,120.199837 
	C161.674683,135.572571 171.158997,147.122818 186.005692,153.305847 
	C191.980331,155.794037 198.664429,157.590820 205.089966,157.809143 
	C233.084671,158.760315 261.215302,156.210968 289.004333,161.952713 
	C308.359772,165.951904 325.958252,173.203842 340.066986,187.554108 
	C341.667023,189.181549 343.338501,190.738800 344.976837,192.328598 
	C345.176666,192.098221 345.376495,191.867828 345.576324,191.637451 
	C345.386749,191.059326 345.197174,190.481186 344.998383,189.123825 
M281.640533,351.092926 
	C280.870880,350.121094 280.101257,349.149231 279.208160,348.021484 
	C284.563293,345.611359 285.903687,341.130890 284.846497,336.245148 
	C283.937378,332.043701 280.932709,329.278259 276.206268,328.965668 
	C270.565399,328.592651 264.934326,328.071930 259.238403,327.610260 
	C259.238403,338.927185 259.238403,349.316864 259.238403,359.802490 
	C262.572693,359.802490 265.663635,359.802490 268.464661,359.802490 
	C269.057709,357.303345 269.590912,355.056305 270.124146,352.809235 
	C273.571228,360.563538 282.589722,363.006989 290.604492,358.416626 
	C289.502258,355.953156 288.403656,353.497772 287.593292,351.686646 
	C285.569153,351.686646 283.862335,351.686646 281.640533,351.092926 
M380.599731,359.999237 
	C386.703583,359.999237 392.807434,359.999237 398.497162,359.999237 
	C398.497162,348.966766 398.497162,338.554688 398.497162,328.326477 
	C390.604279,328.326477 382.865906,328.326477 375.151611,328.326477 
	C375.151611,338.938995 375.151611,349.223633 375.151611,359.999237 
	C376.738678,359.999237 378.180786,359.999237 380.599731,359.999237 
M408.998688,344.501678 
	C408.998688,349.609680 408.998688,354.717682 408.998688,359.829651 
	C412.587708,359.988831 415.627319,360.123657 418.695709,360.259766 
	C418.979950,357.765747 419.294342,355.007324 419.709381,351.365906 
	C426.986328,361.708160 432.828247,363.575928 440.000916,358.428375 
	C439.219727,356.109924 438.415405,353.722717 437.611084,351.335541 
	C437.435638,351.739014 437.260193,352.142456 437.084747,352.545929 
	C434.405609,351.412384 431.726471,350.278809 428.638824,348.972412 
	C429.781433,347.774323 430.061798,347.303589 430.475861,347.073425 
	C434.833832,344.650848 435.846313,340.572327 434.865448,336.296051 
	C433.896820,332.072906 430.972076,329.257935 426.231323,328.977356 
	C421.498169,328.697205 416.767700,328.115295 412.041931,328.170319 
	C411.014954,328.182251 409.259003,330.267853 409.139099,331.522644 
	C408.760468,335.485321 408.998962,339.506958 408.998688,344.501678 
M208.246429,360.000031 
	C210.186752,359.823181 212.787369,360.813538 212.780060,357.299805 
	C212.760056,347.675964 212.773163,338.052094 212.773163,328.307190 
	C209.263626,328.307190 205.716431,328.307190 201.792664,328.307190 
	C201.792664,332.360077 201.792664,336.106934 201.792664,339.748413 
	C198.333160,339.748413 195.260590,339.748413 192.349472,339.748413 
	C192.155899,335.722626 191.974838,331.956696 191.795929,328.235870 
	C181.998627,327.639008 181.998779,327.639008 181.999039,336.933655 
	C181.999268,344.529602 181.999084,352.125549 181.999084,359.755615 
	C185.570572,359.755615 188.640305,359.755615 192.090118,359.755615 
	C192.090118,356.109375 192.090118,352.693939 192.090118,349.235962 
	C195.552643,349.235962 198.622223,349.235962 202.071320,349.235962 
	C202.071320,352.874115 202.071320,356.291748 202.071320,360.000000 
	C204.081116,360.000000 205.708588,360.000000 208.246429,360.000031 
M94.050522,333.580872 
	C86.238998,325.993256 76.523399,328.483856 67.231827,328.000183 
	C67.231827,338.907074 67.231827,349.291138 67.231827,359.991058 
	C72.574814,359.991058 77.691261,359.972412 82.807510,359.996094 
	C88.397461,360.021973 92.184937,357.241394 95.085205,352.640167 
	C99.093163,346.281586 98.007774,340.197937 94.050522,333.580872 
M145.085739,350.481750 
	C145.960556,360.359741 156.117676,362.905487 164.915207,359.924225 
	C169.174683,358.480835 171.842224,355.590698 172.099152,350.559906 
	C172.362915,345.395538 169.409286,343.139099 165.775482,341.632202 
	C166.594849,340.795990 167.454727,339.918427 168.314606,339.040833 
	C168.014740,338.752716 167.714874,338.464600 167.415024,338.176483 
	C168.950439,337.998108 170.485870,337.819702 172.025253,337.640869 
	C170.736938,328.755157 162.593262,326.295288 154.746719,328.775360 
	C147.268478,331.139038 144.784958,338.042908 148.931107,344.453461 
	C149.755997,345.728882 150.169937,347.270050 150.773392,348.688690 
	C149.109726,349.140289 147.446045,349.591888 145.085739,350.481750 
M326.968384,354.732697 
	C323.986389,348.163452 320.778656,341.685242 318.082947,335.000549 
	C315.111847,327.633087 315.316681,327.550476 307.280243,328.292328 
	C302.624634,338.811127 297.979309,349.306641 293.210114,360.082001 
	C298.065247,359.402863 304.007416,362.623749 305.291107,355.136658 
	C309.360352,355.136658 313.000641,355.136658 316.595428,355.136658 
	C318.350647,360.536743 320.280792,361.177216 328.987000,359.293884 
	C328.313141,358.019135 327.656616,356.777191 326.968384,354.732697 
M133.033859,345.290192 
	C130.926651,339.953003 129.389252,334.253082 126.363716,329.500488 
	C125.460480,328.081635 118.225815,328.220154 117.575684,329.506653 
	C112.616898,339.319427 108.570488,349.593292 104.121628,360.000824 
	C106.556396,360.000824 108.722832,360.223846 110.814217,359.923828 
	C112.251862,359.717560 114.462852,359.107208 114.822845,358.125458 
	C117.138069,351.811554 122.195381,355.977112 125.839584,355.248444 
	C126.929726,355.030457 128.610092,357.764252 130.726654,359.837982 
	C132.561478,359.837982 135.681992,359.837982 139.603668,359.837982 
	C137.432892,354.943787 135.441345,350.453613 133.033859,345.290192 
M351.676514,337.000885 
	C354.354431,337.570831 357.032318,338.140778 359.710205,338.710724 
	C360.739197,339.035889 361.984528,338.263885 363.112366,337.347290 
	C366.697998,334.433136 366.841125,332.386169 362.667480,330.457397 
	C359.272675,328.888611 355.233673,328.291779 351.438629,328.103271 
	C344.588776,327.763000 337.906433,332.546448 336.152985,338.662903 
	C333.422821,348.186157 336.129211,353.886688 342.176605,358.606964 
	C346.687561,362.127960 357.591858,361.759094 362.117157,358.373169 
	C367.186401,354.580353 367.130798,353.401978 361.781494,349.967926 
	C360.925446,349.418335 360.164459,348.720642 359.264252,348.016968 
	C356.453217,352.200348 352.708588,353.463531 348.888885,351.117310 
	C346.989563,349.950684 345.326599,346.923859 345.218079,344.658936 
	C345.050659,341.163208 346.374939,337.648926 351.676514,337.000885 
M241.000671,347.510986 
	C241.000671,344.067688 241.000671,340.624359 241.000671,337.232025 
	C251.254791,336.629150 251.254791,336.629150 250.816483,328.289734 
	C240.940918,328.289734 231.061539,328.289734 221.287155,328.289734 
	C221.287155,331.328369 221.287155,334.064148 221.287155,337.177185 
	C224.644455,337.177185 227.718094,337.177185 230.602036,337.177185 
	C230.831360,337.710114 230.946457,337.853485 230.947235,337.997437 
	C230.971481,342.486694 231.001617,346.976044 230.993362,351.465302 
	C230.987930,354.422852 230.924774,357.380249 230.887451,360.337738 
	C233.935043,360.208588 236.983276,360.091370 240.029083,359.928955 
	C240.290649,359.915039 240.536209,359.601196 241.000671,359.280823 
	C241.000671,355.777344 241.000671,352.138641 241.000671,347.510986 
z"/>
<path fill="#FFFFFF" opacity="1.000000" stroke="none" 
	d="
M225.292709,226.744629 
	C230.877457,233.777847 231.085663,242.002563 231.931213,249.981033 
	C232.330765,253.751251 231.999771,257.598907 231.999771,262.131500 
	C248.712845,260.915405 265.447357,264.597565 281.549225,257.211365 
	C294.603271,251.223251 301.962463,240.977783 305.518066,227.822922 
	C310.428619,209.654953 308.603973,192.175781 298.005310,176.121140 
	C297.472198,175.313583 296.864014,174.554932 296.278259,173.783005 
	C295.808258,173.163635 295.319305,172.558716 295.329224,170.847321 
	C299.888855,172.238358 304.664551,173.154419 308.966522,175.111771 
	C320.668365,180.435989 331.720886,186.542130 338.829254,198.163086 
	C344.994293,208.241852 346.233765,219.159317 344.680481,230.175171 
	C343.188141,240.759048 339.456543,250.893631 334.023865,260.348846 
	C323.854645,278.047607 309.082367,289.810425 289.728363,295.989075 
	C281.312134,298.675903 272.768097,300.145416 263.854584,300.069061 
	C240.069061,299.865295 216.280685,299.999725 191.781418,299.999725 
	C191.781418,270.366425 191.781418,241.025314 191.781418,211.510895 
	C202.129120,208.702942 218.799026,215.859772 225.292709,226.744629 
z"/>
<path fill="#FFFFFF" opacity="1.000000" stroke="none" 
	d="
M345.002991,189.513443 
	C345.197174,190.481186 345.386749,191.059326 345.576324,191.637451 
	C345.376495,191.867828 345.176666,192.098221 344.976837,192.328598 
	C343.338501,190.738800 341.667023,189.181549 340.066986,187.554108 
	C325.958252,173.203842 308.359772,165.951904 289.004333,161.952713 
	C261.215302,156.210968 233.084671,158.760315 205.089966,157.809143 
	C198.664429,157.590820 191.980331,155.794037 186.005692,153.305847 
	C171.158997,147.122818 161.674683,135.572571 155.967453,120.199837 
	C157.549225,120.128044 158.951813,120.009209 160.354431,120.008789 
	C195.659790,119.998344 230.969925,119.655281 266.268524,120.143990 
	C284.243927,120.392860 300.624481,126.277908 315.066101,137.460709 
	C330.828247,149.666031 339.082458,166.226837 343.993408,184.929916 
	C344.358368,186.320023 344.664734,187.725494 345.002991,189.513443 
z"/>
<path fill="#FDFEFE" opacity="1.000000" stroke="none" 
	d="
M281.898010,351.389771 
	C283.862335,351.686646 285.569153,351.686646 287.593292,351.686646 
	C288.403656,353.497772 289.502258,355.953156 290.604492,358.416626 
	C282.589722,363.006989 273.571228,360.563538 270.124146,352.809235 
	C269.590912,355.056305 269.057709,357.303345 268.464661,359.802490 
	C265.663635,359.802490 262.572693,359.802490 259.238403,359.802490 
	C259.238403,349.316864 259.238403,338.927185 259.238403,327.610260 
	C264.934326,328.071930 270.565399,328.592651 276.206268,328.965668 
	C280.932709,329.278259 283.937378,332.043701 284.846497,336.245148 
	C285.903687,341.130890 284.563293,345.611359 279.208160,348.021484 
	C280.101257,349.149231 280.870880,350.121094 281.898010,351.389771 
z"/>
<path fill="#FEFFFF" opacity="1.000000" stroke="none" 
	d="
M380.111328,359.999237 
	C378.180786,359.999237 376.738678,359.999237 375.151611,359.999237 
	C375.151611,349.223633 375.151611,338.938995 375.151611,328.326477 
	C382.865906,328.326477 390.604279,328.326477 398.497162,328.326477 
	C398.497162,338.554688 398.497162,348.966766 398.497162,359.999237 
	C392.807434,359.999237 386.703583,359.999237 380.111328,359.999237 
z"/>
<path fill="#FEFEFE" opacity="1.000000" stroke="none" 
	d="
M408.998688,344.003723 
	C408.998962,339.506958 408.760468,335.485321 409.139099,331.522644 
	C409.259003,330.267853 411.014954,328.182251 412.041931,328.170319 
	C416.767700,328.115295 421.498169,328.697205 426.231323,328.977356 
	C430.972076,329.257935 433.896820,332.072906 434.865448,336.296051 
	C435.846313,340.572327 434.833832,344.650848 430.475861,347.073425 
	C430.061798,347.303589 429.781433,347.774323 428.638824,348.972412 
	C431.726471,350.278809 434.405609,351.412384 437.084747,352.545929 
	C437.260193,352.142456 437.435638,351.739014 437.611084,351.335541 
	C438.415405,353.722717 439.219727,356.109924 440.000916,358.428375 
	C432.828247,363.575928 426.986328,361.708160 419.709381,351.365906 
	C419.294342,355.007324 418.979950,357.765747 418.695709,360.259766 
	C415.627319,360.123657 412.587708,359.988831 408.998688,359.829651 
	C408.998688,354.717682 408.998688,349.609680 408.998688,344.003723 
M424.994385,339.603760 
	C425.151489,334.506195 421.163727,337.428802 419.243683,336.129730 
	C419.243683,338.345367 419.243683,340.114563 419.243683,342.342468 
	C421.379425,341.622742 423.159241,341.022980 424.994385,339.603760 
z"/>
<path fill="#FEFEFE" opacity="1.000000" stroke="none" 
	d="
M207.791260,360.000000 
	C205.708588,360.000000 204.081116,360.000000 202.071320,360.000000 
	C202.071320,356.291748 202.071320,352.874115 202.071320,349.235962 
	C198.622223,349.235962 195.552643,349.235962 192.090118,349.235962 
	C192.090118,352.693939 192.090118,356.109375 192.090118,359.755615 
	C188.640305,359.755615 185.570572,359.755615 181.999084,359.755615 
	C181.999084,352.125549 181.999268,344.529602 181.999039,336.933655 
	C181.998779,327.639008 181.998627,327.639008 191.795929,328.235870 
	C191.974838,331.956696 192.155899,335.722626 192.349472,339.748413 
	C195.260590,339.748413 198.333160,339.748413 201.792664,339.748413 
	C201.792664,336.106934 201.792664,332.360077 201.792664,328.307190 
	C205.716431,328.307190 209.263626,328.307190 212.773163,328.307190 
	C212.773163,338.052094 212.760056,347.675964 212.780060,357.299805 
	C212.787369,360.813538 210.186752,359.823181 207.791260,360.000000 
z"/>
<path fill="#FEFEFE" opacity="1.000000" stroke="none" 
	d="
M94.337509,333.840210 
	C98.007774,340.197937 99.093163,346.281586 95.085205,352.640167 
	C92.184937,357.241394 88.397461,360.021973 82.807510,359.996094 
	C77.691261,359.972412 72.574814,359.991058 67.231827,359.991058 
	C67.231827,349.291138 67.231827,338.907074 67.231827,328.000183 
	C76.523399,328.483856 86.238998,325.993256 94.337509,333.840210 
M76.243973,347.770355 
	C76.243973,349.060974 76.243973,350.351624 76.243973,351.826111 
	C80.423508,352.279572 84.829697,352.324280 86.783585,348.009338 
	C87.776505,345.816559 87.475594,342.149567 86.241905,340.034088 
	C84.112335,336.382477 80.058754,336.565125 76.015633,337.328400 
	C76.015633,340.654938 76.015633,343.786499 76.243973,347.770355 
z"/>
<path fill="#FDFEFE" opacity="1.000000" stroke="none" 
	d="
M145.434052,350.262634 
	C147.446045,349.591888 149.109726,349.140289 150.773392,348.688690 
	C150.169937,347.270050 149.755997,345.728882 148.931107,344.453461 
	C144.784958,338.042908 147.268478,331.139038 154.746719,328.775360 
	C162.593262,326.295288 170.736938,328.755157 172.025253,337.640869 
	C170.485870,337.819702 168.950439,337.998108 167.415024,338.176483 
	C167.714874,338.464600 168.014740,338.752716 168.314606,339.040833 
	C167.454727,339.918427 166.594849,340.795990 165.775482,341.632202 
	C169.409286,343.139099 172.362915,345.395538 172.099152,350.559906 
	C171.842224,355.590698 169.174683,358.480835 164.915207,359.924225 
	C156.117676,362.905487 145.960556,360.359741 145.434052,350.262634 
z"/>
<path fill="#FDFEFE" opacity="1.000000" stroke="none" 
	d="
M326.984253,355.133972 
	C327.656616,356.777191 328.313141,358.019135 328.987000,359.293884 
	C320.280792,361.177216 318.350647,360.536743 316.595428,355.136658 
	C313.000641,355.136658 309.360352,355.136658 305.291107,355.136658 
	C304.007416,362.623749 298.065247,359.402863 293.210114,360.082001 
	C297.979309,349.306641 302.624634,338.811127 307.280243,328.292328 
	C315.316681,327.550476 315.111847,327.633087 318.082947,335.000549 
	C320.778656,341.685242 323.986389,348.163452 326.984253,355.133972 
z"/>
<path fill="#FEFEFE" opacity="1.000000" stroke="none" 
	d="
M133.241821,345.626831 
	C135.441345,350.453613 137.432892,354.943787 139.603668,359.837982 
	C135.681992,359.837982 132.561478,359.837982 130.726654,359.837982 
	C128.610092,357.764252 126.929726,355.030457 125.839584,355.248444 
	C122.195381,355.977112 117.138069,351.811554 114.822845,358.125458 
	C114.462852,359.107208 112.251862,359.717560 110.814217,359.923828 
	C108.722832,360.223846 106.556396,360.000824 104.121628,360.000824 
	C108.570488,349.593292 112.616898,339.319427 117.575684,329.506653 
	C118.225815,328.220154 125.460480,328.081635 126.363716,329.500488 
	C129.389252,334.253082 130.926651,339.953003 133.241821,345.626831 
z"/>
<path fill="#FEFEFE" opacity="1.000000" stroke="none" 
	d="
M351.252808,337.001617 
	C346.374939,337.648926 345.050659,341.163208 345.218079,344.658936 
	C345.326599,346.923859 346.989563,349.950684 348.888885,351.117310 
	C352.708588,353.463531 356.453217,352.200348 359.264252,348.016968 
	C360.164459,348.720642 360.925446,349.418335 361.781494,349.967926 
	C367.130798,353.401978 367.186401,354.580353 362.117157,358.373169 
	C357.591858,361.759094 346.687561,362.127960 342.176605,358.606964 
	C336.129211,353.886688 333.422821,348.186157 336.152985,338.662903 
	C337.906433,332.546448 344.588776,327.763000 351.438629,328.103271 
	C355.233673,328.291779 359.272675,328.888611 362.667480,330.457397 
	C366.841125,332.386169 366.697998,334.433136 363.112366,337.347290 
	C361.984528,338.263885 360.739197,339.035889 359.710205,338.710724 
	C357.032318,338.140778 354.354431,337.570831 351.252808,337.001617 
z"/>
<path fill="#FFFFFF" opacity="1.000000" stroke="none" 
	d="
M241.000671,348.005463 
	C241.000671,352.138641 241.000671,355.777344 241.000671,359.280823 
	C240.536209,359.601196 240.290649,359.915039 240.029083,359.928955 
	C236.983276,360.091370 233.935043,360.208588 230.887451,360.337738 
	C230.924774,357.380249 230.987930,354.422852 230.993362,351.465302 
	C231.001617,346.976044 230.971481,342.486694 230.947235,337.997437 
	C230.946457,337.853485 230.831360,337.710114 230.602036,337.177185 
	C227.718094,337.177185 224.644455,337.177185 221.287155,337.177185 
	C221.287155,334.064148 221.287155,331.328369 221.287155,328.289734 
	C231.061539,328.289734 240.940918,328.289734 250.816483,328.289734 
	C251.254791,336.629150 251.254791,336.629150 241.000671,337.232025 
	C241.000671,340.624359 241.000671,344.067688 241.000671,348.005463 
z"/>
<path fill="#000000" opacity="1.000000" stroke="none" 
	d="
M424.966736,340.013489 
	C423.159241,341.022980 421.379425,341.622742 419.243683,342.342468 
	C419.243683,340.114563 419.243683,338.345367 419.243683,336.129730 
	C421.163727,337.428802 425.151489,334.506195 424.966736,340.013489 
z"/>
<path fill="#000000" opacity="1.000000" stroke="none" 
	d="
M76.129807,347.344177 
	C76.015633,343.786499 76.015633,340.654938 76.015633,337.328400 
	C80.058754,336.565125 84.112335,336.382477 86.241905,340.034088 
	C87.475594,342.149567 87.776505,345.816559 86.783585,348.009338 
	C84.829697,352.324280 80.423508,352.279572 76.243973,351.826111 
	C76.243973,350.351624 76.243973,349.060974 76.129807,347.344177 
z"/>
</svg>