<?xml version="1.0" encoding="UTF-8"?>
<svg version="1.1" xmlns="http://www.w3.org/2000/svg" width="500" height="500">
<path d="M0 0 C16.88813907 2.32939849 32.95807546 11.91180662 43.2734375 25.37109375 C45.88259035 29.34385364 47.5943281 33.47325998 49 38 C49.18949219 38.59941406 49.37898437 39.19882813 49.57421875 39.81640625 C53.14600708 58.13410971 46.96614346 78.49157083 36.85400391 93.7265625 C24.24827329 111.88451439 6.23418774 123.66499808 -15.375 128.3125 C-25.82110183 129.94288298 -36.14296249 130.1485762 -46.69140625 130.1328125 C-48.28897618 130.13348721 -49.88654602 130.13445862 -51.4841156 130.13571167 C-54.80981436 130.13717695 -58.13548605 130.13506938 -61.46118164 130.13037109 C-65.73183842 130.12463248 -70.00243292 130.12798605 -74.2730875 130.13394356 C-77.56119767 130.13754527 -80.84929288 130.13641312 -84.13740349 130.13381577 C-85.71354111 130.13314757 -87.28968007 130.13397118 -88.86581612 130.13629532 C-91.0558449 130.13881994 -93.24577001 130.13498595 -95.43579102 130.12939453 C-96.68248062 130.12859894 -97.92917023 130.12780334 -99.21363831 130.12698364 C-102 130 -102 130 -103 129 C-103.09517803 126.23061034 -103.12554265 123.48622841 -103.11352539 120.71655273 C-103.11367142 119.84833893 -103.11381744 118.98012512 -103.1139679 118.08560181 C-103.11326846 115.20157414 -103.10547463 112.3176102 -103.09765625 109.43359375 C-103.09579218 107.43962133 -103.09436823 105.44564845 -103.09336853 103.45167542 C-103.08954248 98.19254298 -103.07971145 92.93343797 -103.06866455 87.67431641 C-103.0584523 82.31217825 -103.05387131 76.95003569 -103.04882812 71.58789062 C-103.03808926 61.05858167 -103.0210118 50.52929311 -103 40 C-101.55731228 39.98793527 -100.11459543 39.97932062 -98.671875 39.97216797 C-97.4667627 39.96441849 -97.4667627 39.96441849 -96.23730469 39.95651245 C-87.22914783 40.13160825 -79.4835533 44.87973857 -73.0234375 50.81640625 C-65.19897333 59.05706533 -63.40494447 68.05351332 -63.25 79.125 C-63.22035156 80.176875 -63.19070312 81.22875 -63.16015625 82.3125 C-63.09026789 84.87507309 -63.03717599 87.43677962 -63 90 C-58.39594942 90.07519808 -53.79227065 90.12908615 -49.18774414 90.16479492 C-47.6274593 90.17970976 -46.06721506 90.20004901 -44.50708008 90.22631836 C-28.6762452 90.48584024 -13.60368144 89.00090804 -1.25 77.9375 C9.14671226 66.51611177 12.7403083 51.43827536 12.27734375 36.30859375 C11.25206258 24.07742263 7.86885 14.59221362 2 4 C1.32553748 2.67059317 0.65491112 1.33914661 0 0 Z " fill="#704AFB" transform="translate(294,170)"/>
<path d="M0 0 C14.86542147 -0.07039058 29.73082991 -0.12313424 44.59638309 -0.15543652 C51.50026619 -0.17084031 58.40404513 -0.19180399 65.30786133 -0.22631836 C71.97983149 -0.25965747 78.65167154 -0.27689147 85.32372856 -0.28463173 C87.85961031 -0.29014251 90.39548667 -0.30090302 92.9313221 -0.31719017 C121.0369785 -0.49040399 145.65371338 3.6342063 166.76171875 23.63671875 C176.93069172 34.37359248 183.01470061 47.26487754 187.5 61.1875 C187.9014624 62.42693359 187.9014624 62.42693359 188.31103516 63.69140625 C188.54870605 64.46742188 188.78637695 65.2434375 189.03125 66.04296875 C189.24330078 66.73414795 189.45535156 67.42532715 189.67382812 68.13745117 C190 70 190 70 189 73 C188.360625 72.34 187.72125 71.68 187.0625 71 C186.04638469 69.99520631 185.02483503 68.99589851 184 68 C183.37996094 67.39542969 182.75992188 66.79085937 182.12109375 66.16796875 C157.39805689 43.08402826 123.03780726 38.93234686 90.625 38.82421875 C89.2846603 38.8137496 87.94432781 38.80231983 86.60400391 38.78999329 C80.98798503 38.73834982 75.37211117 38.68959571 69.75585938 38.67407227 C66.29112136 38.66388081 62.82698556 38.63430457 59.36248779 38.59275246 C57.43916584 38.57481711 55.51568848 38.5770613 53.59228516 38.58000183 C36.29688719 38.34199243 23.03303138 32.19730485 11 20 C6.55059513 15.00656309 0 6.92674853 0 0 Z " fill="#704AFB" transform="translate(155,119)"/>
<path d="M0 0 C6.15262992 0.09700754 10.03785198 0.84370374 14.73925781 4.93847656 C16.32331092 8.38612155 16.58843814 11.5844843 15.80175781 15.25097656 C14.35296188 17.63545321 12.79739385 19.25534052 10.80175781 21.25097656 C12.69930926 23.60071474 12.69930926 23.60071474 15.92675781 23.37597656 C16.87550781 23.33472656 17.82425781 23.29347656 18.80175781 23.25097656 C19.46175781 25.89097656 20.12175781 28.53097656 20.80175781 31.25097656 C17.08617867 33.72802933 14.10854604 33.90352023 9.80175781 33.25097656 C4.86415 30.82875386 2.86908359 28.30443957 0.80175781 23.25097656 C0.47175781 26.22097656 0.14175781 29.19097656 -0.19824219 32.25097656 C-3.49824219 32.25097656 -6.79824219 32.25097656 -10.19824219 32.25097656 C-10.22289722 27.85441484 -10.24108061 23.45788936 -10.25317383 19.0612793 C-10.2582134 17.56452738 -10.26504506 16.06778041 -10.27368164 14.57104492 C-10.28576378 12.42397849 -10.2914741 10.27697694 -10.29589844 8.12988281 C-10.30113525 6.83638916 -10.30637207 5.54289551 -10.31176758 4.21020508 C-10.07921556 -1.85165084 -5.0153542 0.00236239 0 0 Z M0.80175781 8.25097656 C0.47175781 9.90097656 0.14175781 11.55097656 -0.19824219 13.25097656 C2.29268592 14.49644062 3.21256514 14.02773436 5.80175781 13.25097656 C5.80175781 11.93097656 5.80175781 10.61097656 5.80175781 9.25097656 C4.15175781 8.92097656 2.50175781 8.59097656 0.80175781 8.25097656 Z " fill="#6F4AF8" transform="translate(418.1982421875,326.7490234375)"/>
<path d="M0 0 C19.55555556 0 19.55555556 0 24.9375 4.6875 C26.5170536 8.12535195 26.5790168 11.28210268 26 15 C24.625 17.5 24.625 17.5 23 19 C22.34 19 21.68 19 21 19 C21.66 20.32 22.32 21.64 23 23 C24.98 23 26.96 23 29 23 C29.66 25.64 30.32 28.28 31 31 C27.28442086 33.47705276 24.30678823 33.65254367 20 33 C15.06239219 30.5777773 13.06732578 28.05346301 11 23 C10.67 25.97 10.34 28.94 10 32 C6.7 32 3.4 32 0 32 C0 21.44 0 10.88 0 0 Z M10 8 C10 9.98 10 11.96 10 14 C11.98 13.67 13.96 13.34 16 13 C16 11.68 16 10.36 16 9 C13.03 8.505 13.03 8.505 10 8 Z " fill="#6D4AF4" transform="translate(258,327)"/>
<path d="M0 0 C3.46679688 0.04882812 3.46679688 0.04882812 6.93359375 0.09765625 C6.93359375 4.05765625 6.93359375 8.01765625 6.93359375 12.09765625 C10.23359375 12.09765625 13.53359375 12.09765625 16.93359375 12.09765625 C16.92199219 11.31519531 16.91039062 10.53273438 16.8984375 9.7265625 C16.88941406 8.71464844 16.88039062 7.70273437 16.87109375 6.66015625 C16.85949219 5.65082031 16.84789062 4.64148438 16.8359375 3.6015625 C16.93359375 1.09765625 16.93359375 1.09765625 17.93359375 0.09765625 C20.90359375 0.09765625 23.87359375 0.09765625 26.93359375 0.09765625 C26.93359375 10.65765625 26.93359375 21.21765625 26.93359375 32.09765625 C23.63359375 32.09765625 20.33359375 32.09765625 16.93359375 32.09765625 C16.93359375 28.46765625 16.93359375 24.83765625 16.93359375 21.09765625 C13.63359375 21.09765625 10.33359375 21.09765625 6.93359375 21.09765625 C6.93359375 24.72765625 6.93359375 28.35765625 6.93359375 32.09765625 C3.63359375 32.09765625 0.33359375 32.09765625 -3.06640625 32.09765625 C-3.09106129 27.70109452 -3.10924467 23.30456905 -3.12133789 18.90795898 C-3.12637746 17.41120707 -3.13320912 15.91446009 -3.1418457 14.41772461 C-3.15392784 12.27065818 -3.15963816 10.12365663 -3.1640625 7.9765625 C-3.16929932 6.68306885 -3.17453613 5.3895752 -3.17993164 4.05688477 C-3.0297897 0.14318477 -3.0297897 0.14318477 0 0 Z " fill="#6F4AF9" transform="translate(184.06640625,326.90234375)"/>
<path d="M0 0 C21.48780488 0 21.48780488 0 28 5.5625 C30.624631 10.07358453 31.27171512 13.8127113 31 19 C29.35395187 24.90640798 26.80402955 27.52474458 22 31 C19.59940183 32.20029908 18.10639351 32.11459743 15.4296875 32.09765625 C14.62257324 32.09515869 13.81545898 32.09266113 12.98388672 32.09008789 C11.9579541 32.08098389 10.93202148 32.07187988 9.875 32.0625 C4.986875 32.0315625 4.986875 32.0315625 0 32 C0 21.44 0 10.88 0 0 Z M9 9 C8.97314588 11.31243792 8.95367159 13.6249627 8.9375 15.9375 C8.92589844 17.22527344 8.91429688 18.51304687 8.90234375 19.83984375 C8.63467451 22.86298403 8.63467451 22.86298403 10 24 C15.45154833 23.85266008 15.45154833 23.85266008 20.0625 21.375 C21.44114178 17.88244082 20.97696252 15.5821959 20 12 C18.48105194 9.90235835 18.48105194 9.90235835 16 9 C13.66705307 8.95753737 11.33287546 8.95377753 9 9 Z " fill="#6F49FB" transform="translate(66,327)"/>
<path d="M0 0 C0.9583374 0.00523682 1.9166748 0.01047363 2.90405273 0.01586914 C4.45576172 0.02070313 4.45576172 0.02070313 6.03881836 0.02563477 C7.12743164 0.03401367 8.21604492 0.04239258 9.33764648 0.05102539 C10.97636719 0.05779297 10.97636719 0.05779297 12.64819336 0.06469727 C15.35723144 0.07652713 18.06616248 0.09300996 20.77514648 0.11352539 C20.77514648 3.08352539 20.77514648 6.05352539 20.77514648 9.11352539 C16.15514648 9.11352539 11.53514648 9.11352539 6.77514648 9.11352539 C6.77514648 10.10352539 6.77514648 11.09352539 6.77514648 12.11352539 C11.06514648 12.11352539 15.35514648 12.11352539 19.77514648 12.11352539 C19.77514648 15.08352539 19.77514648 18.05352539 19.77514648 21.11352539 C15.48514648 21.11352539 11.19514648 21.11352539 6.77514648 21.11352539 C6.77514648 22.10352539 6.77514648 23.09352539 6.77514648 24.11352539 C11.72514648 24.11352539 16.67514648 24.11352539 21.77514648 24.11352539 C21.44514648 26.75352539 21.11514648 29.39352539 20.77514648 32.11352539 C12.85514648 32.11352539 4.93514648 32.11352539 -3.22485352 32.11352539 C-3.24776589 27.71689506 -3.26769185 23.32047052 -3.27978516 18.92382812 C-3.28482472 17.42707621 -3.29165639 15.93032923 -3.30029297 14.43359375 C-3.3123751 12.28652732 -3.31808543 10.13952577 -3.32250977 7.99243164 C-3.32774658 6.69893799 -3.3329834 5.40544434 -3.33837891 4.07275391 C-3.18837646 0.16269012 -3.18837646 0.16269012 0 0 Z " fill="#6D4CF0" transform="translate(377.224853515625,326.886474609375)"/>
<path d="M0 0 C3.189732 1.30193143 4.44685868 2.15711799 6.3125 5 C7 7 7 7 7 10 C5.54364629 10.22174933 4.08477044 10.42698698 2.625 10.625 C1.81289062 10.74101562 1.00078125 10.85703125 0.1640625 10.9765625 C-0.55007812 10.98429687 -1.26421875 10.99203125 -2 11 C-2.66 10.34 -3.32 9.68 -4 9 C-4.99 9 -5.98 9 -7 9 C-7.33 9.66 -7.66 10.32 -8 11 C-7.25234375 11.17015625 -6.5046875 11.3403125 -5.734375 11.515625 C-4.74953125 11.75796875 -3.7646875 12.0003125 -2.75 12.25 C-1.77546875 12.48203125 -0.8009375 12.7140625 0.203125 12.953125 C3.38758594 14.14507407 4.91245279 15.33203663 7 18 C7.59338457 22.67290346 7.69374982 24.81805585 5.3125 28.875 C0.95797026 32.87645976 -3.03784281 33.39735001 -8.78515625 33.25390625 C-13.04079702 32.7660462 -15.93422561 31.1013002 -18.875 28.0625 C-20 26 -20 26 -20 22 C-18.56589632 21.75045995 -17.12739928 21.52607358 -15.6875 21.3125 C-14.88699219 21.18488281 -14.08648437 21.05726563 -13.26171875 20.92578125 C-11 21 -11 21 -9.375 22.46875 C-8.92125 22.9740625 -8.4675 23.479375 -8 24 C-5.37429296 24.25069913 -5.37429296 24.25069913 -3 24 C-3 23.34 -3 22.68 -3 22 C-4.12148437 21.76216797 -4.12148437 21.76216797 -5.265625 21.51953125 C-13.24993662 19.62796004 -13.24993662 19.62796004 -16.6875 16.75 C-18.41897917 13.12213889 -18.62840591 10.97990408 -18 7 C-13.42115615 -0.55255793 -8.20888732 -0.66430302 0 0 Z " fill="#6D4AF3" transform="translate(164,327)"/>
<path d="M0 0 C2.64 0 5.28 0 8 0 C13.53898018 10.32264489 17.75568749 21.09836482 22 32 C18.37 32 14.74 32 11 32 C10.505 29.525 10.505 29.525 10 27 C6.04 27 2.08 27 -2 27 C-2.33 28.65 -2.66 30.3 -3 32 C-6.63 32 -10.26 32 -14 32 C-12.42023885 28.16515996 -10.83632171 24.33212548 -9.25 20.5 C-8.8065625 19.42234375 -8.363125 18.3446875 -7.90625 17.234375 C-5.47324415 11.36653737 -2.92829728 5.63765644 0 0 Z M3 14 C2.67 15.65 2.34 17.3 2 19 C3.32 19 4.64 19 6 19 C5.67 17.35 5.34 15.7 5 14 C4.34 14 3.68 14 3 14 Z " fill="#6F4AF9" transform="translate(306,327)"/>
<path d="M0 0 C2.05078125 0.03255208 4.1015625 0.06510417 6.15234375 0.09765625 C9.29959474 6.26192716 12.19505108 12.50523246 14.96484375 18.84765625 C15.59422852 20.24564453 15.59422852 20.24564453 16.23632812 21.671875 C16.62755859 22.57035156 17.01878906 23.46882813 17.421875 24.39453125 C17.95711792 25.60641113 17.95711792 25.60641113 18.50317383 26.84277344 C19.15234375 29.09765625 19.15234375 29.09765625 18.15234375 33.09765625 C15.18234375 32.76765625 12.21234375 32.43765625 9.15234375 32.09765625 C8.65734375 29.62265625 8.65734375 29.62265625 8.15234375 27.09765625 C6.19315407 27.15757031 4.23482846 27.24632763 2.27734375 27.34765625 C1.18679687 27.3940625 0.09625 27.44046875 -1.02734375 27.48828125 C-1.95804688 27.689375 -2.88875 27.89046875 -3.84765625 28.09765625 C-4.50765625 29.41765625 -5.16765625 30.73765625 -5.84765625 32.09765625 C-9.14765625 32.09765625 -12.44765625 32.09765625 -15.84765625 32.09765625 C-13.01679658 24.39445158 -9.92615699 16.84725932 -6.59765625 9.34765625 C-6.24445313 8.54924316 -5.89125 7.75083008 -5.52734375 6.92822266 C-2.48623694 0.13140787 -2.48623694 0.13140787 0 0 Z M1.15234375 14.09765625 C0.82234375 15.74765625 0.49234375 17.39765625 0.15234375 19.09765625 C1.47234375 19.09765625 2.79234375 19.09765625 4.15234375 19.09765625 C3.82234375 17.44765625 3.49234375 15.79765625 3.15234375 14.09765625 C2.49234375 14.09765625 1.83234375 14.09765625 1.15234375 14.09765625 Z " fill="#6F4AFA" transform="translate(118.84765625,326.90234375)"/>
<path d="M0 0 C2.41946177 1.5047872 3.75377307 2.83392094 4.7890625 5.49609375 C4.8303125 6.07359375 4.8715625 6.65109375 4.9140625 7.24609375 C2.6040625 8.56609375 0.2940625 9.88609375 -2.0859375 11.24609375 C-3.0759375 10.58609375 -4.0659375 9.92609375 -5.0859375 9.24609375 C-9.88473957 8.68255362 -9.88473957 8.68255362 -14.0859375 10.68359375 C-15.61625518 14.6050328 -14.80799722 18.17472085 -14.0859375 22.24609375 C-8.05502615 22.72140266 -8.05502615 22.72140266 -2.5234375 20.74609375 C-2.0490625 20.25109375 -1.5746875 19.75609375 -1.0859375 19.24609375 C0.8940625 20.89609375 2.8740625 22.54609375 4.9140625 24.24609375 C4.54417287 26.65797681 4.31450859 27.90733518 2.41796875 29.51171875 C-3.82393546 32.67662793 -9.54369495 33.49482022 -16.359375 31.62109375 C-21.08655489 29.65289989 -23.50268167 27.10751406 -25.4609375 22.38671875 C-26.99859978 17.12022544 -26.66570597 12.99333855 -24.3984375 7.99609375 C-19.52041206 -0.80856919 -9.35727822 -3.38193763 0 0 Z " fill="#6D4BF1" transform="translate(360.0859375,327.75390625)"/>
<path d="M0 0 C9.9 0 19.8 0 30 0 C29.67 2.97 29.34 5.94 29 9 C26.03 9 23.06 9 20 9 C20 16.59 20 24.18 20 32 C16.7 32 13.4 32 10 32 C10 24.41 10 16.82 10 9 C6.7 9 3.4 9 0 9 C0 6.03 0 3.06 0 0 Z " fill="#6E4AF2" transform="translate(220,327)"/>
<path d="M0 0 C21.48780488 0 21.48780488 0 28 5.5625 C30.624631 10.07358453 31.27171512 13.8127113 31 19 C29.40560532 24.72106325 26.9630598 27.75492244 22 31 C18.125 31.8125 18.125 31.8125 15 32 C14.67 31.34 14.34 30.68 14 30 C14.62648438 29.87882812 15.25296875 29.75765625 15.8984375 29.6328125 C16.71570313 29.46523438 17.53296875 29.29765625 18.375 29.125 C19.59316406 28.88136719 19.59316406 28.88136719 20.8359375 28.6328125 C23.18673923 28.13341068 23.18673923 28.13341068 25 26 C25.16687448 23.41645782 25.16687448 23.41645782 25 21 C24.20335937 21.55880859 24.20335937 21.55880859 23.390625 22.12890625 C22.68421875 22.60199219 21.9778125 23.07507813 21.25 23.5625 C20.55390625 24.03816406 19.8578125 24.51382812 19.140625 25.00390625 C17 26 17 26 14.734375 25.65234375 C14.16203125 25.43707031 13.5896875 25.22179687 13 25 C13 25.66 13 26.32 13 27 C12.01 27 11.02 27 10 27 C10 26.01 10 25.02 10 24 C12.97 23.01 15.94 22.02 19 21 C19.85387105 17.69432511 19.85387105 17.69432511 20 14 C18.62716577 11.45997987 18.62716577 11.45997987 16 10 C12.35278304 9.19234122 12.35278304 9.19234122 9 9 C9 13.62 9 18.24 9 23 C8.67 23 8.34 23 8 23 C8 18.05 8 13.1 8 8 C11.3 8 14.6 8 18 8 C17.67 6.68 17.34 5.36 17 4 C17.66 3.34 18.32 2.68 19 2 C13.06 2 7.12 2 1 2 C1.08378906 3.67449219 1.16757813 5.34898437 1.25390625 7.07421875 C1.3570915 9.27863085 1.4599384 11.4830588 1.5625 13.6875 C1.61857422 14.79029297 1.67464844 15.89308594 1.73242188 17.02929688 C1.78076172 18.09599609 1.82910156 19.16269531 1.87890625 20.26171875 C1.9260376 21.24100342 1.97316895 22.22028809 2.02172852 23.22924805 C2.00032994 25.95792705 1.62794508 28.35079063 1 31 C1.7425 30.79375 2.485 30.5875 3.25 30.375 C6 30 6 30 10 32 C6.7 32 3.4 32 0 32 C0 21.44 0 10.88 0 0 Z " fill="#6D4AF0" transform="translate(66,327)"/>
<path d="M0 0 C14.86542147 -0.07039058 29.73082991 -0.12313424 44.59638309 -0.15543652 C51.50026619 -0.17084031 58.40404513 -0.19180399 65.30786133 -0.22631836 C71.97983149 -0.25965747 78.65167154 -0.27689147 85.32372856 -0.28463173 C87.85961031 -0.29014251 90.39548667 -0.30090302 92.9313221 -0.31719017 C118.42662316 -0.4743165 118.42662316 -0.4743165 131 3 C131 3.33 131 3.66 131 4 C128.03 4 125.06 4 122 4 C122 3.34 122 2.68 122 2 C83.06 2 44.12 2 4 2 C4 3.98 4 5.96 4 8 C1.81715496 5.34262343 0.72366315 3.34430737 0 0 Z " fill="#7157DB" transform="translate(155,119)"/>
<path d="M0 0 C0.67740234 -0.01224609 1.35480469 -0.02449219 2.05273438 -0.03710938 C6.08770413 -0.04894213 7.97011737 0.32880869 11.6875 2.1875 C5.4175 2.1875 -0.8525 2.1875 -7.3125 2.1875 C-6.9825 11.0975 -6.6525 20.0075 -6.3125 29.1875 C-4.0025 29.5175 -1.6925 29.8475 0.6875 30.1875 C0.6875 27.2175 0.6875 24.2475 0.6875 21.1875 C2.0075 20.8575 3.3275 20.5275 4.6875 20.1875 C5.0175 21.1775 5.3475 22.1675 5.6875 23.1875 C7.9975 22.5275 10.3075 21.8675 12.6875 21.1875 C13.3475 21.8475 14.0075 22.5075 14.6875 23.1875 C17.77097826 23.35431109 17.77097826 23.35431109 20.6875 23.1875 C21.3475 25.8275 22.0075 28.4675 22.6875 31.1875 C18.97192086 33.66455276 15.99428823 33.84004367 11.6875 33.1875 C6.74989219 30.7652773 4.75482578 28.24096301 2.6875 23.1875 C2.3575 26.1575 2.0275 29.1275 1.6875 32.1875 C-1.6125 32.1875 -4.9125 32.1875 -8.3125 32.1875 C-8.33715504 27.79093827 -8.35533842 23.3944128 -8.36743164 18.99780273 C-8.37247121 17.50105082 -8.37930287 16.00430384 -8.38793945 14.50756836 C-8.40002159 12.36050193 -8.40573191 10.21350038 -8.41015625 8.06640625 C-8.41539307 6.7729126 -8.42062988 5.47941895 -8.42602539 4.14672852 C-8.21249872 -1.41920003 -4.57597456 0.00428061 0 0 Z " fill="#6D4AF7" transform="translate(416.3125,326.8125)"/>
<path d="M0 0 C1.98 0 3.96 0 6 0 C6.13277344 0.96421875 6.26554688 1.9284375 6.40234375 2.921875 C6.57894531 4.18515625 6.75554687 5.4484375 6.9375 6.75 C7.19853516 8.62945312 7.19853516 8.62945312 7.46484375 10.546875 C7.89366823 13.79382861 7.89366823 13.79382861 8.59375 16.0625 C9.18071554 18.86187411 8.84001643 21.41316535 8.5625 24.25 C8.46066406 25.32765625 8.35882813 26.4053125 8.25390625 27.515625 C8.17011719 28.33546875 8.08632812 29.1553125 8 30 C5.36 30 2.72 30 0 30 C0 20.1 0 10.2 0 0 Z " fill="#6F49F9" transform="translate(183,329)"/>
<path d="M0 0 C2.05078125 0.03255208 4.1015625 0.06510417 6.15234375 0.09765625 C8.78600362 5.01978755 10.79710199 9.67668923 12.15234375 15.09765625 C11.49234375 14.76765625 10.83234375 14.43765625 10.15234375 14.09765625 C10.15234375 13.43765625 10.15234375 12.77765625 10.15234375 12.09765625 C9.49234375 12.09765625 8.83234375 12.09765625 8.15234375 12.09765625 C7.49234375 9.78765625 6.83234375 7.47765625 6.15234375 5.09765625 C1.74087105 8.33273623 1.30539817 11.94322817 0.44921875 17.05078125 C0.35125 17.72625 0.25328125 18.40171875 0.15234375 19.09765625 C1.14234375 19.42765625 2.13234375 19.75765625 3.15234375 20.09765625 C1.50234375 19.76765625 -0.14765625 19.43765625 -1.84765625 19.09765625 C-2.17765625 17.11765625 -2.50765625 15.13765625 -2.84765625 13.09765625 C-5.56024958 15.43609878 -7.15406935 17.49883198 -8.47265625 20.78515625 C-9.84765625 24.09765625 -9.84765625 24.09765625 -11.84765625 25.09765625 C-12.50320744 27.6249886 -12.50320744 27.6249886 -12.84765625 30.09765625 C-10.53765625 30.09765625 -8.22765625 30.09765625 -5.84765625 30.09765625 C-5.51765625 28.77765625 -5.18765625 27.45765625 -4.84765625 26.09765625 C-4.80493525 27.7637753 -4.80701793 29.4314851 -4.84765625 31.09765625 C-5.84765625 32.09765625 -5.84765625 32.09765625 -8.1328125 32.1953125 C-9.50759766 32.17791016 -9.50759766 32.17791016 -10.91015625 32.16015625 C-11.82925781 32.15113281 -12.74835938 32.14210938 -13.6953125 32.1328125 C-14.40558594 32.12121094 -15.11585937 32.10960937 -15.84765625 32.09765625 C-13.01679658 24.39445158 -9.92615699 16.84725932 -6.59765625 9.34765625 C-6.24445313 8.54924316 -5.89125 7.75083008 -5.52734375 6.92822266 C-2.48623694 0.13140787 -2.48623694 0.13140787 0 0 Z " fill="#6A4BE8" transform="translate(118.84765625,326.90234375)"/>
<path d="M0 0 C3.46679688 0.04882812 3.46679688 0.04882812 6.93359375 0.09765625 C6.93359375 4.05765625 6.93359375 8.01765625 6.93359375 12.09765625 C10.23359375 12.09765625 13.53359375 12.09765625 16.93359375 12.09765625 C16.92199219 11.31519531 16.91039062 10.53273438 16.8984375 9.7265625 C16.88941406 8.71464844 16.88039062 7.70273437 16.87109375 6.66015625 C16.85949219 5.65082031 16.84789062 4.64148438 16.8359375 3.6015625 C16.93359375 1.09765625 16.93359375 1.09765625 17.93359375 0.09765625 C19.45287413 0.02585661 20.97526857 0.01373618 22.49609375 0.03515625 C23.32238281 0.04417969 24.14867187 0.05320312 25 0.0625 C25.63808594 0.07410156 26.27617187 0.08570313 26.93359375 0.09765625 C26.93359375 2.73765625 26.93359375 5.37765625 26.93359375 8.09765625 C26.60359375 8.09765625 26.27359375 8.09765625 25.93359375 8.09765625 C25.93359375 5.78765625 25.93359375 3.47765625 25.93359375 1.09765625 C23.62359375 1.42765625 21.31359375 1.75765625 18.93359375 2.09765625 C18.60359375 6.05765625 18.27359375 10.01765625 17.93359375 14.09765625 C13.97359375 14.09765625 10.01359375 14.09765625 5.93359375 14.09765625 C4.97288941 11.21554323 4.82777492 9.39915581 4.87109375 6.41015625 C4.88011719 5.60191406 4.88914063 4.79367187 4.8984375 3.9609375 C4.91583984 3.03861328 4.91583984 3.03861328 4.93359375 2.09765625 C2.95359375 2.09765625 0.97359375 2.09765625 -1.06640625 2.09765625 C-1.06640625 11.99765625 -1.06640625 21.89765625 -1.06640625 32.09765625 C-1.72640625 32.09765625 -2.38640625 32.09765625 -3.06640625 32.09765625 C-3.09106129 27.70109452 -3.10924467 23.30456905 -3.12133789 18.90795898 C-3.12637746 17.41120707 -3.13320912 15.91446009 -3.1418457 14.41772461 C-3.15392784 12.27065818 -3.15963816 10.12365663 -3.1640625 7.9765625 C-3.16929932 6.68306885 -3.17453613 5.3895752 -3.17993164 4.05688477 C-3.0297897 0.14318477 -3.0297897 0.14318477 0 0 Z " fill="#684ED0" transform="translate(184.06640625,326.90234375)"/>
<path d="M0 0 C0.67740234 -0.01224609 1.35480469 -0.02449219 2.05273438 -0.03710938 C6.08770413 -0.04894213 7.97011737 0.32880869 11.6875 2.1875 C5.4175 2.1875 -0.8525 2.1875 -7.3125 2.1875 C-6.9825 11.0975 -6.6525 20.0075 -6.3125 29.1875 C-4.0025 29.5175 -1.6925 29.8475 0.6875 30.1875 C0.6875 27.2175 0.6875 24.2475 0.6875 21.1875 C2.0075 20.8575 3.3275 20.5275 4.6875 20.1875 C5.6875 21.1875 5.6875 21.1875 5.75 24.25 C5.729375 25.219375 5.70875 26.18875 5.6875 27.1875 C4.6975 25.8675 3.7075 24.5475 2.6875 23.1875 C2.3575 26.1575 2.0275 29.1275 1.6875 32.1875 C-1.6125 32.1875 -4.9125 32.1875 -8.3125 32.1875 C-8.33715504 27.79093827 -8.35533842 23.3944128 -8.36743164 18.99780273 C-8.37247121 17.50105082 -8.37930287 16.00430384 -8.38793945 14.50756836 C-8.40002159 12.36050193 -8.40573191 10.21350038 -8.41015625 8.06640625 C-8.41539307 6.7729126 -8.42062988 5.47941895 -8.42602539 4.14672852 C-8.21249872 -1.41920003 -4.57597456 0.00428061 0 0 Z " fill="#6A52D1" transform="translate(416.3125,326.8125)"/>
<path d="M0 0 C3.125 0.375 3.125 0.375 6 1 C6 2.32 6 3.64 6 5 C3.36 5.66 0.72 6.32 -2 7 C-2 7.66 -2 8.32 -2 9 C-8.75 9.125 -8.75 9.125 -11 8 C-11 5.69 -11 3.38 -11 1 C-10.01 1.495 -10.01 1.495 -9 2 C-5.5 2.25 -5.5 2.25 -2 2 C-1.34 1.34 -0.68 0.68 0 0 Z " fill="#6E49FC" transform="translate(357,350)"/>
<path d="M0 0 C2.9375 1 2.9375 1 5 2 C5.33 4.31 5.66 6.62 6 9 C2.375 12 2.375 12 -1 12 C-0.67 10.02 -0.34 8.04 0 6 C-0.763125 5.855625 -1.52625 5.71125 -2.3125 5.5625 C-5 5 -5 5 -8 4 C-8.33 3.01 -8.66 2.02 -9 1 C-5.96967558 -0.51516221 -3.34885038 -0.17028053 0 0 Z " fill="#7049FC" transform="translate(163,341)"/>
<path d="M0 0 C18 0 18 0 25 3 C24.01 3.99 23.02 4.98 22 6 C21.01 5.67 20.02 5.34 19 5 C19 4.01 19 3.02 19 2 C13.06 2 7.12 2 1 2 C1.08378906 3.67449219 1.16757813 5.34898437 1.25390625 7.07421875 C1.3570915 9.27863085 1.4599384 11.4830588 1.5625 13.6875 C1.61857422 14.79029297 1.67464844 15.89308594 1.73242188 17.02929688 C1.78076172 18.09599609 1.82910156 19.16269531 1.87890625 20.26171875 C1.9260376 21.24100342 1.97316895 22.22028809 2.02172852 23.22924805 C2.00032994 25.95792705 1.62794508 28.35079063 1 31 C1.7425 30.79375 2.485 30.5875 3.25 30.375 C6 30 6 30 10 32 C6.7 32 3.4 32 0 32 C0 21.44 0 10.88 0 0 Z " fill="#694DE4" transform="translate(66,327)"/>
<path d="M0 0 C0.33 0 0.66 0 1 0 C1 6.93 1 13.86 1 21 C2.98 20.67 4.96 20.34 7 20 C7.33 13.4 7.66 6.8 8 0 C8.66 0 9.32 0 10 0 C10 7.59 10 15.18 10 23 C6.7 23 3.4 23 0 23 C0 15.41 0 7.82 0 0 Z " fill="#684BE2" transform="translate(230,336)"/>
<path d="M0 0 C2.10900699 3.16351048 3.0584157 5.88040844 4.1875 9.5 C4.55230469 10.6446875 4.91710937 11.789375 5.29296875 12.96875 C6 16 6 16 5 19 C4.34 18.319375 3.68 17.63875 3 16.9375 C-0.49468234 13.43274653 -4.25130779 10.22778212 -8 7 C-7.01 6.67 -6.02 6.34 -5 6 C-4.67 5.34 -4.34 4.68 -4 4 C-3.01 4.33 -2.02 4.66 -1 5 C-0.67 5 -0.34 5 0 5 C0 3.35 0 1.7 0 0 Z " fill="#694CE9" transform="translate(339,173)"/>
<path d="M0 0 C0.51171875 2.3828125 0.51171875 2.3828125 0.6875 5.125 C0.78611328 6.49011719 0.78611328 6.49011719 0.88671875 7.8828125 C0.92410156 8.58148438 0.96148437 9.28015625 1 10 C2.65 10.33 4.3 10.66 6 11 C6.33 10.34 6.66 9.68 7 9 C7 9.99 7 10.98 7 12 C4.03 12 1.06 12 -2 12 C-2 8.37 -2 4.74 -2 1 C-5.3 1 -8.6 1 -12 1 C-11.67 0.34 -11.34 -0.32 -11 -1 C-3.6375 -2.425 -3.6375 -2.425 0 0 Z " fill="#644BD8" transform="translate(203,347)"/>
<path d="M0 0 C0.99 0.66 1.98 1.32 3 2 C6.12521833 2.16699232 6.12521833 2.16699232 9 2 C9.66 4.64 10.32 7.28 11 10 C7.91111478 12.05925681 7.29064073 12.2390374 3.8125 12.125 C1.9253125 12.063125 1.9253125 12.063125 0 12 C0 11.67 0 11.34 0 11 C4.455 10.505 4.455 10.505 9 10 C9 8.35 9 6.7 9 5 C3.06 5.495 3.06 5.495 -3 6 C-2.67 4.35 -2.34 2.7 -2 1 C-1.34 0.67 -0.68 0.34 0 0 Z " fill="#6A50DB" transform="translate(428,348)"/>
<path d="M0 0 C1.625 1.375 1.625 1.375 3 3 C3.99 3.66 4.98 4.32 6 5 C2.62294375 4.46274105 -0.696686 3.88935377 -4 3 C-4 4.65 -4 6.3 -4 8 C-2.68 8.33 -1.36 8.66 0 9 C0 9.66 0 10.32 0 11 C-3.50150804 10.70820766 -4.78286467 10.21713533 -7.3125 7.6875 C-9 5 -9 5 -9 1 C-5.92122743 0.08777109 -3.20806377 -0.32903218 0 0 Z " fill="#674BDF" transform="translate(153,348)"/>
<path d="M0 0 C0.66 0.33 1.32 0.66 2 1 C1.63011037 3.41188306 1.40044609 4.66124143 -0.49609375 6.265625 C-6.00521917 9.05898437 -10.85514655 9.89100375 -17 9 C-20.625 7.5 -20.625 7.5 -23 6 C-22.360625 5.87625 -21.72125 5.7525 -21.0625 5.625 C-20.381875 5.41875 -19.70125 5.2125 -19 5 C-18.67 4.34 -18.34 3.68 -18 3 C-17.67 4.32 -17.34 5.64 -17 7 C-14.03 7.33 -11.06 7.66 -8 8 C-8 7.34 -8 6.68 -8 6 C-5.36 5.34 -2.72 4.68 0 4 C0 2.68 0 1.36 0 0 Z " fill="#644DD5" transform="translate(363,351)"/>
<path d="M0 0 C0.33 0 0.66 0 1 0 C0.97167215 6.24629085 -0.07769034 9.96365813 -4.33203125 14.58984375 C-7.80213153 17.52358193 -10.48643499 18.25075361 -15 18 C-15.33 17.34 -15.66 16.68 -16 16 C-15.37351562 15.87882812 -14.74703125 15.75765625 -14.1015625 15.6328125 C-13.28429687 15.46523438 -12.46703125 15.29765625 -11.625 15.125 C-10.40683594 14.88136719 -10.40683594 14.88136719 -9.1640625 14.6328125 C-6.81326077 14.13341068 -6.81326077 14.13341068 -5 12 C-4.35232207 9.42938689 -4.35232207 9.42938689 -4 7 C-3.01 6.67 -2.02 6.34 -1 6 C-1.020625 5.195625 -1.04125 4.39125 -1.0625 3.5625 C-1 1 -1 1 0 0 Z " fill="#664CDA" transform="translate(96,341)"/>
<path d="M0 0 C0.99 0.66 1.98 1.32 3 2 C3.53036927 6.62178933 3.63667618 8.89171183 1.3125 12.9375 C-1.21195277 15.18903896 -2.67042093 15.72253508 -6 16 C-5 14 -5 14 -2 12 C-2.66 11.01 -3.32 10.02 -4 9 C-2.35 8.34 -0.7 7.68 1 7 C0.67 4.69 0.34 2.38 0 0 Z " fill="#6D50DF" transform="translate(168,343)"/>
<path d="M0 0 C2.83222793 3.37169992 4.52103176 6.85888893 6 11 C5.67 12.32 5.34 13.64 5 15 C2.03 14.67 -0.94 14.34 -4 14 C-4.33 12.35 -4.66 10.7 -5 9 C-2.525 9.495 -2.525 9.495 0 10 C0 10.66 0 11.32 0 12 C0.99 12 1.98 12 3 12 C2.7834375 11.46890625 2.566875 10.9378125 2.34375 10.390625 C2.0653125 9.68421875 1.786875 8.9778125 1.5 8.25 C1.2215625 7.55390625 0.943125 6.8578125 0.65625 6.140625 C0 4 0 4 0 0 Z " fill="#654AE2" transform="translate(132,345)"/>
<path d="M0 0 C0.33 0 0.66 0 1 0 C1.50992597 4.78055593 -0.28895613 8.10261779 -2.5 12.1875 C-5.00756925 16.37518886 -5.00756925 16.37518886 -6 21 C-4.68 21.66 -3.36 22.32 -2 23 C-4.64 23 -7.28 23 -10 23 C-8.52181294 19.54124714 -7.04228439 16.08306973 -5.5625 12.625 C-5.14162109 11.64015625 -4.72074219 10.6553125 -4.28710938 9.640625 C-3.88427734 8.69960938 -3.48144531 7.75859375 -3.06640625 6.7890625 C-2.69459229 5.91975098 -2.32277832 5.05043945 -1.93969727 4.15478516 C-1.32872612 2.75378974 -0.68353111 1.36706222 0 0 Z " fill="#674DD9" transform="translate(302,336)"/>
<path d="M0 0 C3.73487777 0.4979837 5.81237635 0.87491756 9 3 C7.02 3.99 7.02 3.99 5 5 C5.433125 5.70125 5.86625 6.4025 6.3125 7.125 C11.45170455 15.88068182 11.45170455 15.88068182 11 21 C8.87250766 17.80876148 7.19236463 14.49325592 5.5 11.0625 C5.03787109 10.13147461 5.03787109 10.13147461 4.56640625 9.18164062 C3.70957313 7.45510351 2.85472061 5.72758388 2 4 C1.33418708 2.66624014 0.66800234 1.33266466 0 0 Z " fill="#684EDA" transform="translate(294,170)"/>
<path d="M0 0 C5.33087655 -0.43695709 5.33087655 -0.43695709 8 0 C10.02829372 2.40859879 11 3.83044309 11 7 C7 7 7 7 4 6 C4.33 4.68 4.66 3.36 5 2 C3.02 2.66 1.04 3.32 -1 4 C-0.67 2.68 -0.34 1.36 0 0 Z " fill="#6D4BEF" transform="translate(306,327)"/>
<path d="M0 0 C0.66 0.33 1.32 0.66 2 1 C2 2.98 2 4.96 2 7 C1.01 5.68 0.02 4.36 -1 3 C-1.33 5.97 -1.66 8.94 -2 12 C-4.97 12 -7.94 12 -11 12 C-10.67 11.01 -10.34 10.02 -10 9 C-7.69 9.33 -5.38 9.66 -3 10 C-3 7.03 -3 4.06 -3 1 C-2.01 0.67 -1.02 0.34 0 0 Z " fill="#694DE2" transform="translate(420,347)"/>
<path d="M0 0 C16.70842825 -0.55353075 16.70842825 -0.55353075 25 3 C24.01 3.99 23.02 4.98 22 6 C21.01 5.67 20.02 5.34 19 5 C19 4.01 19 3.02 19 2 C17.081875 2.0309375 17.081875 2.0309375 15.125 2.0625 C10.03792983 2.07058755 5.0483853 1.59020789 0 1 C0 0.67 0 0.34 0 0 Z " fill="#6950D4" transform="translate(66,327)"/>
<path d="M0 0 C1.65 0 3.3 0 5 0 C4.34 1.32 3.68 2.64 3 4 C2.34 4 1.68 4 1 4 C1.66 5.32 2.32 6.64 3 8 C4.98 8 6.96 8 9 8 C9 8.66 9 9.32 9 10 C2.6 10.36923077 2.6 10.36923077 -0.4375 8.5 C-0.953125 8.005 -1.46875 7.51 -2 7 C-1.125 2.25 -1.125 2.25 0 0 Z " fill="#6D51E1" transform="translate(278,342)"/>
<path d="M0 0 C4.95 0 9.9 0 15 0 C14.67 2.64 14.34 5.28 14 8 C11.36 8 8.72 8 6 8 C6 7.67 6 7.34 6 7 C8.31 7 10.62 7 13 7 C13 5.35 13 3.7 13 2 C8.71 1.67 4.42 1.34 0 1 C0 0.67 0 0.34 0 0 Z " fill="#6854CF" transform="translate(384,351)"/>
<path d="M0 0 C1.65 0.99 3.3 1.98 5 3 C3 4 3 4 0.4375 4.5 C-1.93765107 4.75411948 -1.93765107 4.75411948 -3 6 C-6.4375 6.25 -6.4375 6.25 -10 6 C-10.66 5.01 -11.32 4.02 -12 3 C-11.07767578 3.05220703 -11.07767578 3.05220703 -10.13671875 3.10546875 C-8.92435547 3.14607422 -8.92435547 3.14607422 -7.6875 3.1875 C-6.88699219 3.22230469 -6.08648437 3.25710938 -5.26171875 3.29296875 C-2.52148416 2.93801608 -1.70828921 2.10633718 0 0 Z " fill="#664DD6" transform="translate(358,347)"/>
<path d="M0 0 C-0.33 0.99 -0.66 1.98 -1 3 C-6.78634905 5.74090218 -12.69203097 6.35044272 -19 6 C-19 5.67 -19 5.34 -19 5 C-18.10796875 4.80664062 -17.2159375 4.61328125 -16.296875 4.4140625 C-15.12640625 4.15367187 -13.9559375 3.89328125 -12.75 3.625 C-11.58984375 3.36976563 -10.4296875 3.11453125 -9.234375 2.8515625 C-6.08736839 2.02300279 -3.20290958 0 0 0 Z " fill="#6A4ED8" transform="translate(284,255)"/>
<path d="M0 0 C4.05247548 1.35082516 4.14905916 3.29811832 6 7 C6.99 7.33 7.98 7.66 9 8 C9.33 8.99 9.66 9.98 10 11 C7.8125 11 7.8125 11 5 10 C2.65770658 7.11961214 0 3.81180628 0 0 Z " fill="#6649E1" transform="translate(268,347)"/>
<path d="M0 0 C1.8272911 2.74093665 2.93698178 5.13825324 4.125 8.1875 C4.47820312 9.08855469 4.83140625 9.98960937 5.1953125 10.91796875 C5.46085937 11.60503906 5.72640625 12.29210937 6 13 C3.69 13 1.38 13 -1 13 C-0.01 12.34 0.98 11.68 2 11 C2.33 10.01 2.66 9.02 3 8 C2.34 8 1.68 8 1 8 C0.67 5.36 0.34 2.72 0 0 Z " fill="#6951CC" transform="translate(322,346)"/>
<path d="M0 0 C0.66 0.66 1.32 1.32 2 2 C1.625 5.125 1.625 5.125 1 8 C-1.97 7.505 -1.97 7.505 -5 7 C-4.34 6.67 -3.68 6.34 -3 6 C-2.67 5.01 -2.34 4.02 -2 3 C-1.34 3 -0.68 3 0 3 C0 2.01 0 1.02 0 0 Z " fill="#6444EF" transform="translate(302,351)"/>
<path d="M0 0 C0 3.95566141 -1.39609149 5.09914371 -3.875 8.125 C-4.59429687 9.01445312 -5.31359375 9.90390625 -6.0546875 10.8203125 C-8 13 -8 13 -10 14 C-8.51872621 10.74715253 -6.65319465 8.11102873 -4.4375 5.3125 C-3.81746094 4.52488281 -3.19742187 3.73726563 -2.55859375 2.92578125 C-1 1 -1 1 0 0 Z " fill="#654AD7" transform="translate(329,263)"/>
<path d="M0 0 C4.77609498 1.64178265 8.79382904 4.26546702 13 7 C10.04063954 8.47968023 8.13239866 7.84835797 5 7 C3.8125 5 3.8125 5 3 3 C2.01 2.67 1.02 2.34 0 2 C0 1.34 0 0.68 0 0 Z " fill="#6D4DE0" transform="translate(298,127)"/>
<path d="M0 0 C1.02852708 3.08558124 1 4.77356651 1 8 C0.2575 8.12375 -0.485 8.2475 -1.25 8.375 C-3.81448542 8.9578376 -5.69166512 9.78664449 -8 11 C-7.59007812 10.45730469 -7.18015625 9.91460937 -6.7578125 9.35546875 C-6.21898437 8.64003906 -5.68015625 7.92460937 -5.125 7.1875 C-4.59132813 6.47980469 -4.05765625 5.77210938 -3.5078125 5.04296875 C-2.29185219 3.39543703 -1.13583859 1.70375789 0 0 Z " fill="#674ADE" transform="translate(299,239)"/>
<path d="M0 0 C6 7.2 6 7.2 6 12 C5.34 12 4.68 12 4 12 C4 11.01 4 10.02 4 9 C3.01 8.67 2.02 8.34 1 8 C1.33 6.68 1.66 5.36 2 4 C1.34 4 0.68 4 0 4 C0 2.68 0 1.36 0 0 Z " fill="#6B4EE2" transform="translate(331,156)"/>
<path d="M0 0 C4.53214258 1.68336724 8.55341043 3.55341043 12 7 C10.55989519 6.74337755 9.1229313 6.46909179 7.6875 6.1875 C6.88699219 6.03667969 6.08648437 5.88585937 5.26171875 5.73046875 C2.73679476 4.91499244 1.61930266 4.08046329 0 2 C0 1.34 0 0.68 0 0 Z " fill="#6A4FE5" transform="translate(147,341)"/>
<path d="M0 0 C-1 1 -1 1 -3.50390625 1.09765625 C-5.01791016 1.08025391 -5.01791016 1.08025391 -6.5625 1.0625 C-7.57441406 1.05347656 -8.58632812 1.04445313 -9.62890625 1.03515625 C-10.41136719 1.02355469 -11.19382813 1.01195312 -12 1 C-11.67 0.34 -11.34 -0.32 -11 -1 C-3.6375 -2.425 -3.6375 -2.425 0 0 Z " fill="#6A4AE8" transform="translate(203,347)"/>
<path d="M0 0 C2.64 0 5.28 0 8 0 C8.33 0.99 8.66 1.98 9 3 C6.98177083 2.96744792 4.96354167 2.93489583 2.9453125 2.90234375 C0.91814596 2.87350758 0.91814596 2.87350758 -1 4 C-0.67 2.68 -0.34 1.36 0 0 Z " fill="#6A53D2" transform="translate(306,327)"/>
<path d="M0 0 C4.43090471 1.20842856 6.98112756 2.51668565 10 6 C5.545 5.01 5.545 5.01 1 4 C0.67 2.68 0.34 1.36 0 0 Z " fill="#6B4DE3" transform="translate(313,177)"/>
<path d="M0 0 C0.99 0.99 1.98 1.98 3 3 C2.01 4.485 2.01 4.485 1 6 C-0.32 5.67 -1.64 5.34 -3 5 C-2.01 3.35 -1.02 1.7 0 0 Z " fill="#6746FA" transform="translate(320,353)"/>
<path d="M0 0 C1.32 0 2.64 0 4 0 C3.67 0.99 3.34 1.98 3 3 C3 2.34 3 1.68 3 1 C2.34 1 1.68 1 1 1 C0.67 2.65 0.34 4.3 0 6 C0.99 6.33 1.98 6.66 3 7 C1.02 7.33 -0.96 7.66 -3 8 C-2.690625 7.236875 -2.38125 6.47375 -2.0625 5.6875 C-1.32106407 3.81210323 -0.63771783 1.91315348 0 0 Z " fill="#694DDF" transform="translate(308,340)"/>
<path d="M0 0 C1.0625 1.8125 1.0625 1.8125 2 4 C1 7 1 7 -1 8 C-3.6723621 8.13415472 -6.32250488 8.04318541 -9 8 C-9 7.67 -9 7.34 -9 7 C-5.535 6.505 -5.535 6.505 -2 6 C-1.34 4.02 -0.68 2.04 0 0 Z " fill="#6A52D6" transform="translate(287,352)"/>
<path d="M0 0 C0.66 0.33 1.32 0.66 2 1 C1.67 1.66 1.34 2.32 1 3 C0.34 3 -0.32 3 -1 3 C-1.2165625 3.928125 -1.2165625 3.928125 -1.4375 4.875 C-2 7 -2 7 -3 9 C-3.66 9 -4.32 9 -5 9 C-3.90931332 5.22454612 -3.0916909 2.52956528 0 0 Z " fill="#674ED8" transform="translate(340,330)"/>
<path d="M0 0 C-2.95183101 2.95183101 -5.95511947 3.08663988 -10 4 C-9.67 3.01 -9.34 2.02 -9 1 C-6.04335481 -0.4783226 -3.25770263 -0.06032783 0 0 Z " fill="#674CD8" transform="translate(298,291)"/>
<path d="M0 0 C2 3 2 3 2 7 C0.68 6.34 -0.64 5.68 -2 5 C-2 3.68 -2 2.36 -2 1 C-1.34 0.67 -0.68 0.34 0 0 Z " fill="#6C49F7" transform="translate(340,181)"/>
<path d="M0 0 C3 1 3 1 4.1875 2.875 C5 5 5 5 5 8 C3.68 7.67 2.36 7.34 1 7 C1.020625 6.21625 1.04125 5.4325 1.0625 4.625 C1.18684063 2.01885039 1.18684063 2.01885039 0 0 Z " fill="#674FCD" transform="translate(166,329)"/>
<path d="M0 0 C0.28875 0.639375 0.5775 1.27875 0.875 1.9375 C1.82823451 4.15206079 1.82823451 4.15206079 4 5 C1.6568787 4.74438677 -0.67843403 4.40729228 -3 4 C-3.33 3.34 -3.66 2.68 -4 2 C-2.68 2 -1.36 2 0 2 C0 1.34 0 0.68 0 0 Z " fill="#694BE0" transform="translate(344,354)"/>
<path d="M0 0 C2.50298434 2.93828597 3.46930939 5.17902761 4 9 C3.34 9 2.68 9 2 9 C2 7.68 2 6.36 2 5 C1.01 4.67 0.02 4.34 -1 4 C-0.67 2.68 -0.34 1.36 0 0 Z " fill="#6C52DC" transform="translate(317,335)"/>
<path d="M0 0 C4.99162787 0.47996422 6.85035583 0.88776687 11 4 C7.7 3.67 4.4 3.34 1 3 C0.67 2.01 0.34 1.02 0 0 Z " fill="#6C4EDF" transform="translate(286,123)"/>
</svg>
